HIERARCHY
ROOT hip
{
	OFFSET 0.000000 0.000000 0.000000 
	CHANNELS 6 Xposition Yposition Zposition Xrotation Zrotation Yrotation
	JOINT abdomen
	{
		OFFSET 0.000000 3.402643 0.000000 
		CHANNELS 3 Xrotation Zrotation Yrotation
		JOINT chest
		{
			OFFSET 0.000000 8.438565 -0.680529 
			CHANNELS 3 Xrotation Zrotation Yrotation
			JOINT neck
			{
				OFFSET 0.000000 10.207942 -0.272212 
				CHANNELS 3 Xrotation Zrotation Yrotation
				JOINT head
				{
					OFFSET 0.000000 3.130431 0.000000 
					CHANNELS 3 Xrotation Zrotation Yrotation
					End Site
					{
						OFFSET 0.000000 3.130435 0.000000 
					}
				}
			}
			JOINT lCollar
			{
				OFFSET 3.470700 6.669187 -0.816635 
				CHANNELS 3 Yrotation Zrotation Xrotation
				JOINT lShldr
				{
					OFFSET 3.198488 0.000000 0.000000 
					CHANNELS 3 Zrotation Yrotation Xrotation
					JOINT lForeArm
					{
						OFFSET 10.139888 0.000000 0.000000 
						CHANNELS 3 Yrotation Zrotation Xrotation
						JOINT lHand
						{
							OFFSET 8.370511 0.000000 0.000000 
							CHANNELS 3 Zrotation Yrotation Xrotation
							End Site
							{
								OFFSET 4.083176 0.000000 0.000000 
							}
						}
					}
				}
			}
			JOINT rCollar
			{
				OFFSET -3.470700 6.669187 -0.816635 
				CHANNELS 3 Yrotation Zrotation Xrotation
				JOINT rShldr
				{
					OFFSET -3.198488 0.000000 0.000000 
					CHANNELS 3 Zrotation Yrotation Xrotation
					JOINT rForeArm
					{
						OFFSET -10.139888 0.000000 0.000000 
						CHANNELS 3 Yrotation Zrotation Xrotation
						JOINT rHand
						{
							OFFSET -8.370511 0.000000 0.000000 
							CHANNELS 3 Zrotation Yrotation Xrotation
							End Site
							{
								OFFSET -4.083176 0.000000 0.000000 
							}
						}
					}
				}
			}
		}
	}
	JOINT lThigh
	{
		OFFSET 5.308129 -1.633274 1.361059 
		CHANNELS 3 Xrotation Zrotation Yrotation
		JOINT lShin
		{
			OFFSET -2.041588 -20.007561 0.000000 
			CHANNELS 3 Xrotation Zrotation Yrotation
			JOINT lFoot
			{
				OFFSET 0.000000 -19.190928 -1.224953 
				CHANNELS 3 Xrotation Yrotation Zrotation
				End Site
				{
					OFFSET 0.000000 -2.449906 4.627600 
				}
			}
		}
	}
	JOINT rThigh
	{
		OFFSET -5.308129 -1.633274 1.361059 
		CHANNELS 3 Xrotation Zrotation Yrotation
		JOINT rShin
		{
			OFFSET 2.041588 -20.007561 0.000000 
			CHANNELS 3 Xrotation Zrotation Yrotation
			JOINT rFoot
			{
				OFFSET 0.000000 -19.190928 -1.224953 
				CHANNELS 3 Xrotation Yrotation Zrotation
				End Site
				{
					OFFSET 0.000000 -2.449906 4.627600 
				}
			}
		}
	}
}
MOTION
Frames: 20
Frame Time: 0.016667
3.256698 44.098217 -5.558469 3.714860 2.631186 -20.844580 -17.222822 -1.492471 -1.842258 22.045389 2.000543 -1.191867 -24.951189 0.061979 -12.108915 -1.979506 7.427255 -5.880100 1.993405 -2.003458 -0.008156 -82.129494 -5.786261 29.038843 -32.818916 -0.214305 -1.091067 -0.052245 0.052569 26.210953 -2.003062 1.991579 -0.506922 87.055878 5.632058 15.025860 31.375816 -0.077308 -0.501891 0.067648 -0.072132 22.587908 -24.663382 11.255331 18.488682 48.654812 1.920269 3.382517 -27.915482 11.110950 7.322742 -34.324322 -11.327866 -3.212960 41.911648 -2.441373 -2.966063 -10.293284 0.651375 -0.472867 
3.596435 43.817253 -5.764863 3.001385 2.701373 -23.002644 -16.988447 -1.503690 -1.982234 21.952503 2.318941 -1.292198 -25.253908 -0.008832 -11.714583 -2.077665 7.358494 -5.714493 1.993405 -2.003458 -0.008156 -80.967484 -4.793901 29.929722 -35.094479 -0.249207 -1.106052 -0.055557 0.043300 27.529312 -2.003062 1.991579 -0.506922 87.935806 7.686626 15.642637 31.629711 -0.079532 -0.501544 0.067157 -0.071926 22.978533 -24.273209 11.665682 19.239676 49.801563 1.881086 3.412412 -27.827129 10.945834 7.264434 -36.569576 -11.971802 -3.483247 44.753159 -2.304620 -3.128251 -8.708057 4.727673 0.109742 
3.933146 43.487648 -5.986524 2.297687 2.810243 -25.248272 -16.754225 -1.533610 -2.048308 21.889614 2.637215 -1.343014 -25.253912 -0.035329 -11.330991 -2.096992 7.280330 -5.567685 1.993405 -2.003458 -0.008156 -79.634460 -3.977349 31.225815 -37.262699 -0.285243 -1.124985 -0.054406 0.042680 29.062517 -2.003062 1.991579 -0.506922 89.107841 10.133465 17.171108 31.668766 -0.071562 -0.506616 0.049711 -0.062174 24.560555 -23.851257 12.141529 20.305182 51.030312 1.802629 3.499219 -28.085180 10.556170 7.177227 -38.979748 -12.293489 -2.467133 47.337662 -2.187551 -3.285694 -5.553540 9.497915 0.135104 
4.220129 43.150658 -6.221150 1.564613 2.977407 -27.301125 -16.529615 -1.544769 -2.110141 21.908695 3.099127 -1.390845 -25.253960 0.114820 -11.040489 -2.156155 7.299572 -5.419586 1.993405 -2.003458 -0.008156 -78.192505 -3.619908 33.052307 -39.069527 -0.306007 -1.141446 -0.053790 0.042332 29.892593 -2.003062 1.991579 -0.506922 90.341721 12.667229 19.948744 31.864073 -0.073289 -0.506369 0.052622 -0.052753 25.800789 -23.482821 12.700750 21.923922 52.355400 1.734136 3.565707 -28.459866 10.080933 7.010472 -41.188553 -12.353156 -0.263601 49.133274 -2.121651 -3.360861 -1.806674 13.469615 -0.604920 
4.429635 42.875942 -6.472433 0.811754 3.124687 -28.871298 -16.295017 -1.527885 -2.258658 22.002193 3.731269 -1.481377 -25.414482 -1.843644 -10.100924 -2.544495 6.263399 -5.335784 1.993405 -2.003458 -0.008156 -76.706520 -4.030210 35.579300 -40.251328 -0.324835 -1.157844 -0.054326 0.042636 29.169935 -2.003062 1.991579 -0.506922 91.485123 14.915788 24.278309 32.655102 -0.066781 -0.502357 0.052856 -0.052865 25.546883 -23.084478 13.269467 23.828211 53.454159 1.665662 3.597438 -28.637856 9.769995 6.848720 -42.813461 -12.214895 2.413497 49.226231 -2.197215 -3.333467 2.793729 15.845948 -2.041762 
4.561365 42.698257 -6.736595 0.234707 3.046850 -29.889368 -16.040262 -1.426609 -2.363456 22.205759 4.341223 -1.530814 -24.710148 -4.499769 -9.827174 -2.558628 5.014553 -5.624182 1.993405 -2.003458 -0.008156 -75.211861 -5.560852 39.075371 -40.427242 -0.335047 -1.157733 -0.051807 0.052351 26.689470 -2.003062 1.991579 -0.506922 92.641716 16.872147 29.595791 33.973392 -0.062124 -0.511602 0.059753 -0.062300 24.306646 -22.831583 13.915405 25.291105 54.279530 1.608672 3.651694 -28.729559 9.614067 6.738078 -43.651127 -11.835583 4.750487 47.447029 -2.438863 -3.174960 4.785135 16.145784 -2.796861 
4.622499 42.602852 -6.999331 0.019553 2.724609 -30.379465 -15.824003 -1.221436 -2.271112 22.462877 4.712697 -1.471784 -22.539078 -4.646902 -10.847754 -1.764497 4.987880 -6.002491 1.993405 -2.003458 -0.008156 -73.834312 -8.227116 43.854015 -39.430977 -0.320090 -1.148214 -0.074663 0.053894 23.105484 -2.003062 1.991579 -0.506922 93.871155 18.433960 35.109928 35.535915 -0.040859 -0.510853 0.067047 -0.071879 23.066423 -22.831221 14.608014 25.812140 54.808422 1.596945 3.668388 -28.689066 9.372033 6.597103 -43.697819 -11.151916 6.550657 43.967594 -2.731349 -2.959293 1.706729 14.872450 -1.984577 
4.608194 42.568962 -7.263419 0.117276 2.226558 -30.239208 -15.725142 -1.005822 -1.962954 22.667912 4.687681 -1.276906 -20.281075 -1.538962 -11.775341 -0.805675 6.317739 -5.918203 1.993405 -2.003458 -0.008156 -72.455429 -11.893369 50.172783 -37.721634 -0.283946 -1.133209 -0.075231 0.064576 19.150410 -2.003062 1.991579 -0.506922 95.154205 19.538776 40.324444 37.196045 -0.026401 -0.519387 0.071895 -0.063320 22.138678 -23.123846 15.193512 25.200075 54.943531 1.618191 3.645663 -28.464546 9.247723 6.482375 -43.228085 -10.243636 8.294955 40.270138 -3.092217 -2.699353 -3.372069 10.108932 -0.735549 
4.505271 42.618237 -7.548975 0.293095 1.679666 -29.317299 -15.724453 -0.855419 -1.575602 22.756819 4.414189 -1.070227 -18.867197 -0.055446 -11.406834 -0.501562 6.786852 -5.527609 1.993405 -2.003458 -0.008156 -71.206512 -16.208780 57.264427 -35.846485 -0.264137 -1.118467 -0.076268 0.075140 15.888697 -2.003062 1.991579 -0.506922 96.442879 20.307358 45.499508 39.080784 -0.014570 -0.529127 0.072793 -0.063678 21.328131 -23.647579 15.412458 23.596792 54.756378 1.665520 3.655517 -27.954607 9.532005 6.469884 -42.201881 -9.335598 10.627599 37.127323 -3.394418 -2.436604 -6.230641 2.208056 -0.547098 
4.297591 42.780533 -7.878646 0.488364 1.054649 -27.783798 -15.753310 -0.742510 -1.128459 22.745903 4.062963 -0.827257 -17.424206 0.922442 -10.650779 -0.275475 6.972577 -5.062491 1.993405 -2.003458 -0.008156 -70.669792 -20.621346 63.392986 -33.834625 -0.230142 -1.094782 -0.078002 0.075612 14.570339 -2.003062 1.991579 -0.506922 97.758629 21.006453 50.708687 41.209709 0.000692 -0.532829 0.070299 -0.073178 20.498053 -24.218885 15.342080 21.187222 54.145294 1.724811 3.586544 -27.130222 10.089949 6.523283 -40.467842 -8.427630 13.237599 34.655216 -3.530805 -2.286527 -7.439427 -5.820870 -1.046796 
3.983000 43.083134 -8.267987 0.761733 0.351531 -25.962063 -15.821206 -0.601325 -0.620630 22.609705 3.751206 -0.557931 -15.519863 2.230150 -9.701070 0.187020 7.197227 -4.506780 1.993405 -2.003458 -0.008156 -71.045784 -24.504824 66.921761 -31.705557 -0.191965 -1.082786 -0.076704 0.075263 15.556666 -2.003062 1.991579 -0.506922 99.336922 21.814674 55.892693 43.387478 0.022248 -0.545110 0.070848 -0.073382 20.068367 -24.637175 15.096053 18.246283 52.631081 1.872942 3.516767 -25.843452 10.780179 6.559835 -38.885925 -7.372871 14.564108 33.587223 -3.569494 -2.199416 -9.023135 -10.628762 -1.694305 
3.578667 43.557167 -8.725714 1.240265 -0.400297 -23.993109 -15.928353 -0.497707 -0.082575 22.426311 3.476144 -0.284975 -13.263795 3.241437 -8.283042 0.807088 7.167265 -3.795348 1.993405 -2.003458 -0.008156 -72.093231 -27.503948 66.696350 -29.713335 -0.164079 -1.071863 -0.075727 0.064747 18.710960 -2.003062 1.991579 -0.506922 101.286827 22.846945 60.928349 45.535961 0.036258 -0.552790 0.070411 -0.073220 20.410162 -25.002789 14.690249 14.680336 50.398285 2.056980 3.378525 -24.302786 11.912096 6.684597 -37.622524 -6.386780 13.029871 33.471794 -3.454284 -2.206674 -9.841638 -10.324704 -1.879620 
3.101835 44.152241 -9.241145 2.021958 -1.239462 -21.782238 -16.094124 -0.384699 0.423491 22.166174 3.238282 -0.009670 -10.490829 3.697093 -6.621432 1.398000 7.283011 -3.034585 1.993405 -2.003458 -0.008156 -73.876518 -29.560457 62.968731 -28.082504 -0.133627 -1.056411 -0.073957 0.053587 23.857439 -2.003062 1.991579 -0.506922 103.286018 23.970528 65.500267 47.889595 0.061454 -0.563146 0.072696 -0.063639 21.416021 -25.549509 14.164310 9.920195 47.624187 2.264890 3.214559 -22.560879 13.670534 6.939450 -36.401871 -5.459213 9.072824 33.746647 -3.194982 -2.305454 -9.925323 -5.883746 -1.455574 
2.575374 44.746937 -9.790376 3.068540 -2.135608 -19.050289 -16.357639 -0.290481 0.846977 21.777407 2.902371 0.212110 -7.785683 4.296118 -5.205785 2.450095 7.034644 -2.326579 1.993405 -2.003458 -0.008156 -76.104958 -31.009325 58.248207 -27.398920 -0.124387 -1.054425 -0.054203 0.042567 29.335953 -2.003062 1.991579 -0.506922 105.125870 25.161049 69.168411 50.389645 0.070557 -0.575409 0.067673 -0.072142 22.568378 -26.347105 13.241938 3.232514 44.736576 2.516645 3.017513 -20.884888 16.212856 7.381280 -35.182812 -4.433593 4.375607 34.663342 -2.900248 -2.500390 -10.358988 0.125997 -0.695836 
2.012413 45.248978 -10.359351 4.283377 -3.038381 -15.667113 -16.660336 -0.261959 1.211205 21.328846 2.438156 0.395381 -4.981841 5.243898 -4.108678 3.581930 7.066387 -1.765566 1.993405 -2.003458 -0.008156 -78.025108 -32.214405 54.785866 -28.199682 -0.140073 -1.061296 -0.057232 0.033006 32.334000 -2.003062 1.991579 -0.506922 106.701889 26.653202 71.894928 52.967918 0.091516 -0.591540 0.066949 -0.071837 23.144548 -27.488785 11.727817 -5.751099 42.465954 2.728523 2.847410 -19.924360 19.686396 8.228123 -34.131783 -3.221798 0.103614 36.074608 -2.603309 -2.661442 -10.898767 6.042047 0.334080 
1.419292 45.639351 -10.954773 5.647671 -3.867910 -11.622887 -16.953411 -0.326943 1.418023 20.969179 1.905949 0.505911 -2.466887 6.468659 -3.236403 4.677484 7.377962 -1.292528 1.993405 -2.003458 -0.008156 -79.458183 -33.342663 52.890099 -30.553171 -0.178544 -1.080634 -0.057872 0.033402 31.230480 -2.003062 1.991579 -0.506922 107.835052 28.632231 73.927383 55.780659 0.116647 -0.605652 0.067710 -0.072158 22.539080 -29.105858 9.452746 -16.649326 41.206661 2.776870 2.769024 -22.140831 23.649988 10.586911 -33.617039 -1.933630 -3.163402 38.160809 -2.290990 -2.892326 -11.106814 11.493385 1.484689 
0.789729 45.924194 -11.606386 7.228719 -4.427560 -6.928783 -17.256546 -0.503607 1.386898 20.720207 1.488886 0.485061 -0.620309 7.333559 -2.490644 5.527239 7.601627 -0.887675 1.993405 -2.003458 -0.008156 -80.418945 -34.501587 52.672775 -34.283813 -0.237689 -1.107553 -0.052147 0.052520 26.318373 -2.003062 1.991579 -0.506922 108.341156 31.099413 75.377800 59.150040 0.134418 -0.624965 0.070236 -0.073155 20.546883 -31.042387 6.670306 -26.866592 40.732685 2.685318 2.754331 -29.788439 24.928102 15.080156 -33.905293 -0.908157 -5.672910 40.660816 -2.011712 -3.111715 -10.144910 16.289976 2.316062 
0.126473 46.147770 -12.326412 8.808057 -4.613158 -1.739444 -17.541044 -0.847356 1.195531 20.531548 1.134039 0.356427 0.472805 7.509514 -1.802696 6.018851 7.527119 -0.535964 1.993405 -2.003458 -0.008156 -81.085014 -35.820347 53.938915 -38.796013 -0.305333 -1.147583 -0.075088 0.064527 19.277363 -2.003062 1.991579 -0.506922 108.250641 34.039200 76.494675 63.046978 0.165997 -0.649649 0.073707 -0.074364 17.851572 -33.678967 4.854271 -30.440626 40.557915 2.548698 2.806608 -34.195805 23.665649 16.919460 -34.622959 -0.488273 -7.818425 43.246025 -1.751360 -3.369604 -7.915937 20.018562 2.418258 
-0.565883 46.338459 -13.086938 10.089619 -4.471076 3.442929 -17.592457 -1.284649 1.061482 20.617079 0.749501 0.223473 1.053173 7.176534 -1.245180 6.281315 7.280722 -0.234985 1.993405 -2.003458 -0.008156 -82.125313 -37.502419 55.894238 -43.142513 -0.363099 -1.183417 -0.086610 0.095413 12.304720 -2.003062 1.991579 -0.506922 107.709389 37.619156 77.332069 67.178307 0.187926 -0.673200 0.073667 -0.084553 15.839854 -36.842014 5.108078 -24.276201 40.468597 2.418226 2.810854 -29.780256 22.431910 13.827600 -35.290051 -0.566102 -9.859468 45.889034 -1.572679 -3.507742 -5.200776 21.747484 1.891046 
-1.264605 46.395977 -13.849440 10.742789 -4.250631 8.285458 -17.311684 -1.603639 1.026907 21.064899 0.364522 0.159990 1.425632 6.658113 -0.918639 6.405866 7.036318 -0.081148 1.993405 -2.003458 -0.008156 -84.045731 -39.479889 57.984016 -46.805733 -0.424364 -1.222338 -0.085669 0.096918 7.050805 -2.003062 1.991579 -0.506922 106.832993 41.674068 77.769463 71.182739 0.208522 -0.702755 0.074561 -0.084802 15.234386 -38.277962 5.908563 -16.070210 40.707249 2.255805 2.904870 -25.438023 20.174768 10.566213 -35.451893 -0.731242 -11.506998 48.502789 -1.386864 -3.671407 -3.502257 21.073786 1.377648 
